<svg width="400" height="151" viewBox="0 0 400 151" fill="none" xmlns="http://www.w3.org/2000/svg">
<path d="M28.5101 89.4796C28.5082 91.0647 28.1851 92.3287 27.5504 93.2354C26.8722 94.2018 26.0394 94.9771 25.0741 95.5399C24.0845 96.1167 23.0027 96.507 21.8611 96.6989C20.6445 96.9025 19.5182 97.007 18.5171 97.0056L9.41223 96.9946L9.43122 81.481L18.609 81.492C21.7326 81.496 24.2154 82.1872 25.9874 83.5458C27.6878 84.8496 28.5131 86.7909 28.5101 89.4796ZM25.6395 69.5048C25.2101 70.3164 24.6462 70.9669 23.912 71.4908C23.1691 72.0248 22.2819 72.4106 21.2747 72.6379C20.2016 72.8832 19.0363 73.0057 17.8163 73.0041L9.44173 72.9942L9.45722 60.1003L19.2938 60.1118C21.7435 60.1148 23.5291 60.7387 24.5997 61.965C25.7274 63.2573 26.2757 64.7389 26.2733 66.4945C26.2717 67.6998 26.0573 68.7125 25.6395 69.5048ZM37.3986 84.6959C36.7677 83.0711 35.9005 81.6184 34.8147 80.3768C33.7246 79.1302 32.4165 78.1075 30.925 77.3351C30.4894 77.1107 30.0437 76.9132 29.5878 76.744C31.0139 75.9249 32.2635 74.9166 33.3218 73.7268C35.1706 71.6476 36.1104 68.9484 36.1144 65.7068C36.1175 63.351 35.672 61.2528 34.7933 59.4693C33.9125 57.6838 32.6894 56.1943 31.1598 55.0413C29.6618 53.9151 27.8587 53.0522 25.7958 52.4749C23.7734 51.9131 21.5651 51.6269 19.2314 51.624L0.0659824 51.6006L0 105.47L18.9459 105.493C21.5806 105.496 24.0754 105.166 26.3632 104.51C28.6786 103.849 30.748 102.86 32.5149 101.57C34.3099 100.26 35.743 98.6224 36.7757 96.704C37.8158 94.7707 38.3462 92.5153 38.3493 90.0002C38.3517 88.1161 38.0314 86.3326 37.3986 84.6959Z" fill="#9da6af"/>
<path d="M52.2612 83.082C52.3683 82.4655 52.5582 81.841 52.8291 81.214C53.2849 80.1614 53.9328 79.1914 54.7569 78.3306C55.5702 77.4792 56.5889 76.7734 57.7827 76.2331C60.1924 75.1491 63.4649 75.2362 65.6019 76.1145C66.6729 76.5545 67.5742 77.1667 68.2776 77.9305C68.9878 78.7029 69.5286 79.6274 69.8865 80.6749C70.1409 81.426 70.3204 82.2401 70.4228 83.104L52.2612 83.082ZM79.9116 87.215C79.9145 84.8876 79.5947 82.564 78.9614 80.3087C78.315 78.0111 77.2518 75.9121 75.7988 74.0718C74.3347 72.2221 72.4448 70.7037 70.1814 69.5587C67.9067 68.4096 65.108 67.8243 61.8654 67.8203C59.1392 67.8175 56.5734 68.3111 54.2417 69.2865C51.9083 70.2637 49.8689 71.6363 48.1804 73.3661C46.4944 75.0924 45.1548 77.1522 44.198 79.4857C43.2414 81.821 42.754 84.3814 42.751 87.0956C42.7475 89.7997 43.1875 92.3517 44.0571 94.6766C44.9329 97.0216 46.207 99.0903 47.842 100.827C49.4816 102.568 51.5115 103.95 53.8728 104.934C56.2236 105.915 58.8728 106.414 61.7454 106.418C68.6784 106.426 74.1617 103.903 78.0401 98.92L78.775 97.976L71.94 92.7583L71.2072 93.653C70.0289 95.0952 68.7238 96.2671 67.3308 97.138C66.0192 97.9557 64.4382 98.3701 62.6312 98.3682C61.2625 98.3662 59.9195 98.1408 58.6384 97.6994C57.3683 97.2638 56.2395 96.6448 55.2828 95.864C54.3406 95.0948 53.5704 94.1511 52.991 93.0614C52.6067 92.3347 52.3523 91.5421 52.2307 90.6975L79.9072 90.7314L79.9116 87.215Z" fill="#9da6af"/>
<path d="M211.139 83.2754C211.248 82.6584 211.437 82.0338 211.709 81.4069C212.163 80.3543 212.813 79.3843 213.635 78.5235C214.45 77.6719 215.467 76.9663 216.664 76.4264C219.069 75.342 222.344 75.4281 224.479 76.3079C225.552 76.7479 226.453 77.3594 227.157 78.1238C227.867 78.8963 228.408 79.8208 228.765 80.8693C229.021 81.6168 229.199 82.4305 229.301 83.2974L211.139 83.2754ZM238.791 87.4079C238.794 85.0829 238.474 82.7594 237.84 80.5007C237.194 78.2005 236.128 76.1029 234.677 74.2647C233.211 72.4129 231.323 70.8947 229.061 69.7521C226.784 68.6024 223.987 68.0177 220.744 68.0137C218.018 68.0102 215.453 68.5043 213.119 69.4793C210.787 70.4566 208.749 71.8297 207.059 73.5595C205.373 75.2868 204.034 77.3465 203.079 79.6785C202.119 82.017 201.632 84.5768 201.629 87.2889C201.626 89.9926 202.066 92.5425 202.936 94.8695C203.813 97.2159 205.087 99.2856 206.722 101.019C208.362 102.762 210.391 104.143 212.752 105.127C215.101 106.108 217.751 106.607 220.624 106.61C227.555 106.619 233.039 104.096 236.919 99.1134L237.655 98.1689L230.818 92.9511L230.085 93.8464C228.907 95.2881 227.603 96.4605 226.208 97.3309C224.898 98.149 223.317 98.563 221.512 98.5611C220.143 98.5595 218.797 98.3336 217.517 97.8927C216.248 97.4572 215.119 96.8391 214.163 96.0569C213.219 95.2881 212.45 94.344 211.871 93.2543C211.485 92.5282 211.231 91.7349 211.109 90.8908L238.786 90.9243L238.791 87.4079Z" fill="#9da6af"/>
<path d="M320.91 83.4083C321.019 82.7917 321.21 82.1671 321.478 81.5402C321.934 80.4875 322.582 79.5178 323.406 78.6568C324.219 77.8063 325.238 77.1007 326.432 76.5592C328.846 75.4729 332.117 75.5614 334.251 76.4407C335.322 76.8807 336.222 77.4919 336.928 78.2582C337.638 79.0295 338.179 79.9526 338.536 81.0017C338.792 81.7522 338.97 82.5663 339.072 83.4306L320.91 83.4083ZM348.562 87.5412C348.565 85.2138 348.245 82.8908 347.609 80.6349C346.965 78.3349 345.901 76.2373 344.448 74.3979C342.984 72.5482 341.094 71.0299 338.832 69.8839C336.554 68.7357 333.758 68.1505 330.515 68.1465C327.789 68.1436 325.224 68.6378 322.89 69.6126C320.56 70.59 318.52 71.963 316.83 73.6928C315.144 75.4211 313.805 77.4809 312.85 79.8118C311.891 82.1463 311.405 84.7066 311.4 87.4224C311.398 90.126 311.837 92.6779 312.709 95.0029C313.584 97.3477 314.856 99.4165 316.491 101.153C318.133 102.894 320.161 104.276 322.523 105.26C324.873 106.241 327.523 106.74 330.395 106.744C337.326 106.752 342.811 104.23 346.69 99.2463L347.424 98.3022L340.59 93.0844L339.857 93.9792C338.678 95.4214 337.374 96.5933 335.981 97.4642C334.67 98.2823 333.089 98.6965 331.281 98.6944C329.913 98.6925 328.57 98.4669 327.29 98.0255C326.019 97.5907 324.891 96.9721 323.934 96.1903C322.99 95.4209 322.219 94.4774 321.642 93.3876C321.258 92.661 321.002 91.8682 320.88 91.0238L348.557 91.0576L348.562 87.5412Z" fill="#9da6af"/>
<path d="M191.28 68.8464L182.12 93.1021L172.614 68.8239L162.424 68.8115L177.453 105.685L186.302 105.696L200.873 68.8584L191.28 68.8464Z" fill="#9da6af"/>
<path d="M305.782 97.3656C305.222 97.684 304.589 97.9059 303.901 98.0259C302.08 98.34 300.259 98.2773 299.499 97.7447C299.025 97.4113 298.685 96.9854 298.454 96.4374C298.193 95.8179 298.042 95.0968 298 94.2911C297.954 93.3659 297.933 92.4304 297.934 91.4794L297.952 77.0329L307.374 77.0443L307.384 68.9914L297.961 68.98L297.973 59.3079L289.008 59.2969L289 65.6085C288.998 67.4646 287.485 68.9671 285.621 68.9651L281.398 68.9596L281.389 77.0125L288.985 77.0219L288.966 93.796C288.965 95.2336 289.025 96.6748 289.147 98.0807C289.281 99.6343 289.726 101.063 290.472 102.329C291.241 103.638 292.437 104.712 294.026 105.519C295.6 106.317 297.701 106.707 300.446 106.71C301.187 106.711 302.187 106.625 303.496 106.448C304.902 106.256 306.034 105.913 306.95 105.4L307.56 105.06L307.571 96.3498L305.782 97.3656Z" fill="#9da6af"/>
<path d="M104.109 67.8916C100.845 67.8876 97.611 69.1263 94.8739 70.9685C93.3803 69.2467 91.0934 68.0961 88.6288 68.0931C85.9974 68.0896 82.9509 68.7391 82.9509 68.7391L82.9429 75.5797C85.997 75.1214 87.5825 75.9853 87.5805 77.6712L87.5755 81.6754L87.5745 82.4094L87.5461 105.576L96.5038 105.587C96.5038 105.587 96.5544 86.4811 96.5584 83.3559C96.5589 83.0584 96.5829 82.7418 96.6174 82.4202C96.9552 79.3782 98.9432 75.5558 104.1 75.5622C109.801 75.5687 111.625 80.2505 111.621 83.3742C111.617 86.4989 111.621 105.605 111.621 105.605L120.579 105.616L120.608 81.7157C120.62 72.3943 113.076 67.9026 104.109 67.8916Z" fill="#9da6af"/>
<path d="M148.433 96.0821C147.77 96.9057 146.876 97.5893 145.777 98.1134C144.68 98.6384 143.305 98.9027 141.691 98.9011C139.65 98.8987 138.039 98.5215 136.904 97.7791C135.918 97.135 135.439 96.0571 135.441 94.4822C135.442 93.4366 135.751 92.614 136.384 91.966C137.105 91.2296 138.06 90.6418 139.224 90.2224C140.468 89.7749 141.873 89.4684 143.398 89.3117C144.986 89.1484 146.554 89.0657 148.06 89.0678L150.371 89.0708L150.37 90.0635C150.369 91.1082 150.211 92.1855 149.902 93.2629C149.603 94.2945 149.109 95.2425 148.433 96.0821ZM158.888 95.7536L158.907 80.6197C158.908 78.9717 158.599 77.3671 157.985 75.8444C157.362 74.3026 156.39 72.9203 155.097 71.7383C153.813 70.5653 152.163 69.6228 150.191 68.9391C146.367 67.6179 140.763 67.4457 135.561 69.2496C132.982 70.1459 130.678 71.5114 128.715 73.3079L127.814 74.1311L133.333 79.8435L134.178 79.2135C134.767 78.7745 135.378 78.3122 136.017 77.8251C136.581 77.3966 137.219 77.0138 137.917 76.6879C138.618 76.3599 139.422 76.0808 140.299 75.8578C141.149 75.6423 142.168 75.5333 143.328 75.5345C144.58 75.5364 145.657 75.717 146.531 76.0708C147.391 76.4177 148.113 76.8889 148.674 77.4697C149.24 78.0545 149.671 78.7173 149.953 79.4389C150.238 80.1719 150.382 80.9084 150.381 81.6276L150.38 81.8923L146.753 81.8878C144.071 81.8848 141.506 82.0962 139.127 82.5153C136.696 82.9452 134.533 83.6718 132.696 84.6721C130.803 85.7063 129.283 87.0693 128.179 88.726C127.052 90.4189 126.479 92.5229 126.477 94.9803C126.474 96.8539 126.832 98.5359 127.541 99.9776C128.246 101.414 129.227 102.641 130.457 103.622C131.664 104.587 133.091 105.322 134.693 105.802C136.258 106.272 137.921 106.511 139.638 106.513C142.428 106.516 144.932 106.018 147.08 105.029C148.43 104.41 149.673 103.516 150.798 102.362C150.9 102.251 151.074 102.068 151.296 101.837C152.468 103.823 154.663 105.659 157.831 105.663C160.464 105.666 163.509 104.796 163.509 104.796L163.518 97.7854C160.502 98.2369 158.926 97.3979 158.888 95.7536Z" fill="#9da6af"/>
<path d="M357.616 101.461L358.155 101.462C358.784 101.463 359.294 101.254 359.296 100.747C359.296 100.3 358.966 100.001 358.246 99.9995C357.947 99.9995 357.738 100.029 357.618 100.059L357.616 101.461ZM357.582 104.236L356.443 104.234L356.45 99.3412C356.899 99.2521 357.528 99.1938 358.339 99.1949C359.267 99.1959 359.686 99.3451 360.045 99.5553C360.315 99.7631 360.525 100.151 360.523 100.629C360.523 101.166 360.104 101.584 359.504 101.762V101.822C359.982 102.001 360.253 102.359 360.4 103.016C360.55 103.763 360.64 104.061 360.758 104.24L359.531 104.238C359.381 104.06 359.293 103.611 359.142 103.045C359.054 102.507 358.754 102.268 358.125 102.267L357.586 102.266L357.582 104.236ZM354.558 101.667C354.557 103.844 356.173 105.577 358.39 105.58C360.549 105.583 362.138 103.854 362.141 101.706C362.144 99.5267 360.558 97.7646 358.37 97.7616C356.182 97.7592 354.562 99.5173 354.558 101.667ZM363.4 101.678C363.397 104.453 361.206 106.628 358.358 106.625C355.541 106.622 353.298 104.44 353.301 101.665C353.304 98.9501 355.554 96.7738 358.371 96.7773C361.219 96.7809 363.403 98.962 363.4 101.678Z" fill="#9da6af"/>
<path d="M207.48 133.71L211.448 133.715C212.458 133.716 213.392 133.586 214.253 133.323C215.112 133.061 215.856 132.656 216.486 132.104C217.115 131.552 217.611 130.85 217.976 129.993C218.341 129.138 218.523 128.109 218.525 126.907C218.526 125.706 218.347 124.677 217.984 123.821C217.621 122.965 217.126 122.26 216.499 121.707C215.869 121.156 215.126 120.747 214.269 120.481C213.408 120.218 212.475 120.084 211.464 120.083L207.498 120.078L207.48 133.71ZM205.414 118.149L212.162 118.157C212.741 118.158 213.352 118.226 213.997 118.358C214.642 118.491 215.283 118.701 215.92 118.99C216.555 119.279 217.165 119.654 217.754 120.117C218.339 120.578 218.856 121.133 219.302 121.783C219.747 122.436 220.102 123.184 220.366 124.033C220.629 124.881 220.76 125.841 220.758 126.91C220.757 127.982 220.624 128.938 220.358 129.787C220.093 130.635 219.736 131.383 219.29 132.034C218.842 132.682 218.325 133.237 217.736 133.698C217.149 134.158 216.536 134.531 215.899 134.819C215.262 135.108 214.621 135.316 213.976 135.446C213.331 135.578 212.718 135.642 212.141 135.642L205.394 135.634L205.414 118.149Z" fill="#9da6af"/>
<path d="M231.843 128.85C231.811 127.862 231.49 127.072 230.879 126.478C230.269 125.885 229.424 125.588 228.351 125.586C227.274 125.585 226.405 125.881 225.744 126.472C225.082 127.065 224.683 127.853 224.552 128.841L231.843 128.85ZM233.499 133.568C232.803 134.457 232.042 135.078 231.215 135.43C230.389 135.783 229.427 135.958 228.338 135.958C227.427 135.956 226.608 135.795 225.882 135.472C225.154 135.151 224.539 134.718 224.035 134.175C223.531 133.631 223.144 132.988 222.872 132.247C222.6 131.505 222.464 130.716 222.466 129.875C222.467 128.987 222.618 128.168 222.915 127.418C223.213 126.67 223.629 126.028 224.157 125.495C224.687 124.961 225.317 124.544 226.045 124.25C226.773 123.955 227.565 123.807 228.426 123.808C229.237 123.809 229.981 123.945 230.659 124.217C231.335 124.491 231.917 124.887 232.405 125.406C232.891 125.925 233.267 126.56 233.531 127.308C233.794 128.057 233.927 128.91 233.925 129.866V130.482L224.549 130.471C224.581 130.966 224.701 131.439 224.906 131.892C225.112 132.345 225.383 132.74 225.711 133.078C226.04 133.415 226.429 133.684 226.877 133.882C227.322 134.08 227.81 134.179 228.339 134.18C229.181 134.181 229.893 134.033 230.472 133.738C231.053 133.442 231.573 133.008 232.037 132.43L233.499 133.568Z" fill="#9da6af"/>
<path d="M236.31 126.854C236.31 126.328 236.296 125.834 236.262 125.373C236.23 124.913 236.214 124.492 236.214 124.114L238.053 124.116C238.051 124.43 238.058 124.741 238.074 125.053C238.091 125.368 238.098 125.689 238.098 126.018H238.147C238.28 125.738 238.467 125.467 238.709 125.203C238.947 124.941 239.232 124.705 239.563 124.501C239.896 124.296 240.267 124.131 240.68 124.008C241.094 123.886 241.539 123.823 242.021 123.823C242.781 123.824 243.438 123.941 243.992 124.173C244.544 124.404 245.002 124.727 245.366 125.137C245.73 125.549 245.998 126.048 246.173 126.633C246.346 127.217 246.43 127.854 246.43 128.546L246.421 135.684L244.486 135.682L244.494 128.742C244.496 127.77 244.282 127.006 243.853 126.444C243.422 125.884 242.754 125.604 241.845 125.603C241.216 125.602 240.674 125.708 240.218 125.92C239.765 126.134 239.392 126.439 239.101 126.833C238.811 127.228 238.595 127.698 238.456 128.24C238.314 128.783 238.242 129.384 238.242 130.042L238.235 135.674L236.299 135.672L236.31 126.854Z" fill="#9da6af"/>
<path d="M255.834 125.767L252.41 125.763L252.402 131.542C252.402 131.921 252.411 132.27 252.427 132.592C252.443 132.912 252.509 133.193 252.624 133.431C252.739 133.671 252.912 133.86 253.144 134C253.376 134.141 253.706 134.211 254.138 134.212C254.418 134.212 254.706 134.18 255.005 134.114C255.303 134.047 255.584 133.95 255.848 133.818L255.922 135.572C255.589 135.72 255.221 135.826 254.816 135.892C254.411 135.956 254.026 135.989 253.663 135.989C252.968 135.988 252.413 135.896 252.002 135.716C251.589 135.534 251.266 135.278 251.034 134.948C250.803 134.619 250.651 134.211 250.576 133.725C250.503 133.24 250.469 132.7 250.469 132.109L250.477 125.761L247.946 125.757L247.947 124.129L250.479 124.132L250.483 120.848L252.415 120.85L252.411 124.135L255.835 124.138L255.834 125.767Z" fill="#9da6af"/>
<path d="M263.045 130.148C261.805 130.146 260.821 130.318 260.093 130.661C259.365 131.008 259 131.576 259 132.366C258.999 133.089 259.242 133.604 259.73 133.909C260.216 134.214 260.824 134.368 261.552 134.369C262.114 134.37 262.605 134.276 263.028 134.086C263.45 133.898 263.802 133.648 264.084 133.334C264.365 133.022 264.58 132.656 264.73 132.237C264.879 131.816 264.964 131.369 264.98 130.891L264.981 130.15L263.045 130.148ZM257.445 125.622C258.042 125.013 258.748 124.566 259.567 124.279C260.386 123.99 261.216 123.847 262.061 123.848C263.781 123.85 265.02 124.257 265.78 125.063C266.54 125.871 266.92 127.099 266.917 128.744L266.912 133.707C266.911 134.038 266.925 134.378 266.96 134.733C266.991 135.086 267.034 135.413 267.082 135.709L265.221 135.707C265.154 135.443 265.119 135.15 265.111 134.83C265.101 134.509 265.1 134.225 265.1 133.978L265.05 133.977C264.669 134.569 264.159 135.055 263.524 135.432C262.885 135.811 262.122 135.999 261.228 135.998C260.632 135.997 260.074 135.922 259.552 135.774C259.034 135.624 258.578 135.407 258.191 135.118C257.802 134.829 257.493 134.471 257.263 134.043C257.031 133.613 256.914 133.12 256.916 132.56C256.917 131.606 257.167 130.856 257.663 130.314C258.159 129.772 258.776 129.369 259.512 129.106C260.247 128.844 261.042 128.68 261.895 128.614C262.746 128.55 263.527 128.518 264.239 128.519L264.983 128.521V128.175C264.984 127.335 264.732 126.7 264.229 126.272C263.725 125.844 263.018 125.629 262.108 125.628C261.479 125.627 260.864 125.728 260.26 125.934C259.655 126.14 259.124 126.455 258.658 126.882L257.445 125.622Z" fill="#9da6af"/>
<path d="M270.032 117.042L271.967 117.044L271.944 135.714L270.01 135.712L270.032 117.042Z" fill="#9da6af"/>
<path d="M287.835 121.855C287.307 121.147 286.656 120.614 285.88 120.261C285.101 119.904 284.291 119.726 283.448 119.725C282.472 119.724 281.574 119.921 280.755 120.316C279.937 120.71 279.23 121.24 278.633 121.906C278.037 122.573 277.574 123.345 277.24 124.226C276.909 125.106 276.742 126.023 276.741 126.978C276.739 128 276.905 128.951 277.233 129.832C277.565 130.713 278.022 131.478 278.609 132.131C279.193 132.781 279.898 133.296 280.715 133.675C281.534 134.056 282.438 134.246 283.43 134.247C284.506 134.249 285.464 134.04 286.309 133.622C287.154 133.201 287.888 132.598 288.518 131.807L290.08 133.119C289.285 134.172 288.328 134.945 287.21 135.437C286.094 135.929 284.832 136.175 283.429 136.173C282.173 136.172 280.997 135.941 279.905 135.477C278.816 135.015 277.87 134.375 277.067 133.559C276.267 132.745 275.64 131.778 275.187 130.657C274.733 129.536 274.507 128.31 274.51 126.976C274.51 125.692 274.731 124.49 275.171 123.371C275.609 122.253 276.229 121.282 277.022 120.458C277.818 119.638 278.762 118.988 279.853 118.512C280.944 118.036 282.144 117.797 283.451 117.799C284.642 117.8 285.786 118.016 286.885 118.447C287.984 118.876 288.906 119.576 289.648 120.549L287.835 121.855Z" fill="#9da6af"/>
<path d="M300.726 128.934C300.693 127.946 300.371 127.156 299.76 126.562C299.15 125.969 298.306 125.672 297.232 125.67C296.157 125.669 295.288 125.965 294.627 126.556C293.965 127.149 293.565 127.937 293.434 128.925L300.726 128.934ZM302.382 133.652C301.686 134.541 300.925 135.162 300.099 135.513C299.27 135.867 298.31 136.042 297.219 136.042C296.309 136.04 295.491 135.879 294.763 135.556C294.037 135.235 293.421 134.802 292.917 134.258C292.414 133.715 292.027 133.072 291.755 132.33C291.483 131.589 291.347 130.8 291.347 129.959C291.349 129.071 291.499 128.252 291.797 127.502C292.096 126.754 292.51 126.112 293.04 125.579C293.57 125.045 294.2 124.628 294.926 124.333C295.654 124.039 296.448 123.89 297.309 123.892C298.118 123.893 298.862 124.029 299.541 124.301C300.216 124.575 300.8 124.971 301.288 125.49C301.774 126.009 302.15 126.644 302.413 127.392C302.677 128.141 302.81 128.994 302.808 129.95V130.566L293.432 130.555C293.462 131.05 293.582 131.523 293.787 131.976C293.995 132.429 294.264 132.824 294.594 133.162C294.923 133.499 295.312 133.768 295.758 133.966C296.205 134.164 296.691 134.263 297.221 134.264C298.064 134.265 298.776 134.117 299.354 133.822C299.934 133.526 300.454 133.091 300.918 132.514L302.382 133.652Z" fill="#9da6af"/>
<path d="M305.192 126.938C305.192 126.412 305.176 125.918 305.144 125.456C305.111 124.996 305.095 124.575 305.096 124.198L306.933 124.2C306.933 124.513 306.94 124.825 306.956 125.137C306.972 125.451 306.98 125.773 306.98 126.102H307.029C307.16 125.822 307.349 125.55 307.589 125.287C307.829 125.024 308.114 124.789 308.443 124.584C308.776 124.379 309.149 124.215 309.562 124.092C309.976 123.969 310.423 123.907 310.901 123.907C311.663 123.908 312.319 124.025 312.874 124.257C313.426 124.487 313.884 124.81 314.248 125.221C314.61 125.633 314.88 126.132 315.053 126.717C315.226 127.301 315.312 127.938 315.311 128.63L315.303 135.768L313.367 135.765L313.376 128.825C313.376 127.853 313.162 127.09 312.733 126.528C312.304 125.968 311.634 125.688 310.727 125.687C310.098 125.686 309.554 125.792 309.1 126.004C308.645 126.218 308.272 126.522 307.983 126.917C307.693 127.312 307.477 127.782 307.336 128.324C307.196 128.867 307.123 129.467 307.123 130.126L307.116 135.758L305.181 135.756L305.192 126.938Z" fill="#9da6af"/>
<path d="M324.714 125.851L321.29 125.847L321.283 131.627C321.283 132.005 321.291 132.355 321.307 132.676C321.323 132.996 321.389 133.277 321.506 133.516C321.619 133.755 321.792 133.944 322.024 134.084C322.256 134.225 322.589 134.296 323.018 134.296C323.298 134.296 323.587 134.264 323.886 134.198C324.182 134.131 324.466 134.034 324.73 133.902L324.802 135.656C324.469 135.804 324.102 135.91 323.696 135.976C323.291 136.04 322.906 136.074 322.544 136.073C321.848 136.072 321.294 135.98 320.883 135.8C320.469 135.618 320.147 135.362 319.915 135.032C319.683 134.703 319.531 134.296 319.458 133.809C319.384 133.324 319.349 132.784 319.35 132.193L319.357 125.845L316.827 125.842L316.829 124.213L319.36 124.216L319.363 120.932L321.296 120.934L321.293 124.219L324.715 124.223L324.714 125.851Z" fill="#9da6af"/>
<path d="M335.179 128.976C335.146 127.988 334.824 127.198 334.215 126.604C333.604 126.011 332.76 125.714 331.685 125.712C330.61 125.711 329.741 126.007 329.08 126.598C328.418 127.191 328.018 127.979 327.887 128.967L335.179 128.976ZM336.836 133.694C336.14 134.583 335.378 135.204 334.552 135.556C333.724 135.909 332.765 136.084 331.672 136.083C330.763 136.082 329.946 135.921 329.216 135.598C328.49 135.277 327.875 134.844 327.37 134.301C326.867 133.757 326.48 133.114 326.208 132.373C325.936 131.631 325.8 130.842 325.8 130.001C325.802 129.113 325.952 128.294 326.25 127.544C326.549 126.797 326.963 126.155 327.493 125.621C328.023 125.087 328.653 124.67 329.379 124.375C330.107 124.081 330.903 123.933 331.764 123.934C332.573 123.935 333.316 124.071 333.994 124.343C334.671 124.617 335.253 125.013 335.741 125.532C336.227 126.051 336.604 126.686 336.866 127.434C337.13 128.183 337.263 129.036 337.261 129.992V130.608L327.885 130.597C327.917 131.092 328.035 131.565 328.24 132.018C328.448 132.47 328.717 132.866 329.047 133.204C329.376 133.541 329.765 133.81 330.212 134.008C330.658 134.206 331.144 134.305 331.675 134.306C332.519 134.307 333.229 134.159 333.807 133.864C334.387 133.568 334.907 133.134 335.371 132.556L336.836 133.694Z" fill="#9da6af"/>
<path d="M339.645 126.98C339.645 126.454 339.629 125.96 339.597 125.498C339.565 125.039 339.549 124.617 339.55 124.24L341.386 124.242C341.386 124.555 341.392 124.867 341.408 125.179C341.426 125.493 341.434 125.815 341.434 126.144H341.482C341.614 125.864 341.802 125.592 342.042 125.329C342.282 125.066 342.566 124.831 342.896 124.627C343.229 124.422 343.602 124.257 344.014 124.134C344.429 124.011 344.875 123.949 345.354 123.949C345.486 123.95 345.619 123.959 345.75 123.975C345.883 123.992 346.014 124.025 346.149 124.075L346.022 126.025C345.691 125.925 345.342 125.876 344.979 125.875C343.789 125.874 342.925 126.256 342.386 127.021C341.846 127.786 341.578 128.835 341.576 130.168L341.57 135.8L339.634 135.798L339.645 126.98Z" fill="#9da6af"/>
<path d="M348.998 7.08488e-06C342.278 -0.00795521 337.642 6.69678 340.047 12.9422L358.09 59.8347L369.677 29.9372L358.162 0.0109568L348.998 7.08488e-06Z" fill="#55C9E8"/>
<path d="M390.429 0.0500123L381.266 0.0390625L369.677 29.9369L381.192 59.8623L392.779 29.9653L399.349 13.0136C401.768 6.77415 397.147 0.0584722 390.429 0.0500123Z" fill="#C3D600"/>
<path d="M358.162 0.0107422L369.677 29.937L381.266 0.0391112L358.162 0.0107422Z" fill="#3DAF2C"/>
<path d="M348.998 7.08488e-06C342.278 -0.00795521 337.642 6.69678 340.047 12.9422L358.09 59.8347L369.677 29.9372L358.162 0.0109568L348.998 7.08488e-06Z" fill="#55C9E8"/>
<path d="M390.429 0.0500123L381.266 0.0390625L369.677 29.9369L381.192 59.8623L392.779 29.9653L399.349 13.0136C401.768 6.77415 397.147 0.0584722 390.429 0.0500123Z" fill="#C3D600"/>
<path d="M358.162 0.0107422L369.677 29.937L381.266 0.0391112L358.162 0.0107422Z" fill="#3DAF2C"/>
<path d="M262.647 68.084C259.384 68.08 256.149 69.3192 253.413 71.1614C251.92 69.4396 249.632 68.289 247.168 68.2855C244.536 68.2825 241.492 68.9319 241.492 68.9319L241.482 75.7726C244.536 75.3143 246.122 76.1777 246.119 77.8641L246.114 81.8682V82.6023L246.085 105.769L255.044 105.78C255.044 105.78 255.093 86.6735 255.098 83.5488C255.098 83.2512 255.122 82.9342 255.156 82.6131C255.495 79.5706 257.482 75.7487 262.639 75.7546C268.34 75.7616 270.164 80.4434 270.16 83.5671C270.156 86.6918 270.16 105.798 270.16 105.798L279.119 105.809L279.148 81.9081C279.159 72.5867 271.615 68.095 262.647 68.084Z" fill="#9da6af"/>
<path d="M145.28 113.811C145.875 113.811 146.173 113.974 146.173 114.299C146.173 114.586 145.952 114.891 145.511 115.216C145.069 115.541 144.647 115.713 144.243 115.732C141.69 115.79 139.338 116.115 137.187 116.707C136.419 119.173 135.719 121.801 135.085 124.592C136.717 124.267 138.32 124.105 139.895 124.105C140.567 124.105 141.248 124.134 141.939 124.191C142.343 124.21 142.544 124.344 142.544 124.592C142.544 124.879 142.304 125.214 141.824 125.596C141.344 125.959 140.931 126.131 140.586 126.112C140.298 126.093 139.866 126.083 139.29 126.083C137.85 126.083 136.295 126.255 134.624 126.599C133.856 129.983 133.232 133.318 132.752 136.606C132.695 136.969 132.407 137.294 131.888 137.581C131.37 137.849 130.861 137.982 130.362 137.982C130.074 137.982 129.843 137.925 129.671 137.81C129.517 137.696 129.459 137.524 129.498 137.294C130.093 133.548 130.698 130.279 131.312 127.488L130.333 127.832C129.987 127.947 129.699 128.004 129.469 128.004C129.239 128.004 129.056 127.957 128.922 127.861C128.787 127.765 128.72 127.632 128.72 127.46C128.72 127.268 128.816 127.068 129.008 126.857C129.2 126.647 129.479 126.456 129.843 126.284C130.515 125.978 131.159 125.72 131.773 125.51C132.426 122.681 133.136 120.11 133.904 117.797C133.635 117.873 133.443 117.912 133.328 117.912C133.059 117.912 132.829 117.845 132.637 117.711C132.445 117.577 132.349 117.415 132.349 117.223C132.349 116.879 132.618 116.583 133.155 116.335C136.784 114.595 140.826 113.754 145.28 113.811Z" fill="#C1D446"/>
<path d="M144.023 133.252C143.985 133.481 143.965 133.644 143.965 133.739C143.965 134.504 144.34 134.886 145.089 134.886C145.53 134.886 146.068 134.762 146.701 134.514C147.277 134.284 148.343 133.797 149.898 133.051C149.937 132.573 149.975 132.115 150.013 131.675C150.071 131.216 150.119 130.805 150.157 130.442L150.359 128.464C149.034 129.094 148.045 129.591 147.393 129.955C146.433 130.509 145.665 131.035 145.089 131.532C144.513 132.009 144.157 132.583 144.023 133.252ZM151.511 119.747C152.375 119.747 152.951 119.967 153.239 120.407C153.546 120.827 153.7 121.448 153.7 122.27L153.671 123.073C153.594 124.469 153.421 126.514 153.153 129.209C153.095 129.591 153.028 130.232 152.951 131.13C152.874 131.684 152.807 132.134 152.749 132.478C152.961 132.592 153.066 132.745 153.066 132.937C153.066 133.07 152.999 133.271 152.865 133.539L152.749 133.682L152.577 133.854C152.442 134.829 152.375 135.66 152.375 136.349C152.644 136.501 152.778 136.683 152.778 136.893C152.778 137.218 152.538 137.562 152.058 137.926C151.924 138.021 151.77 138.117 151.597 138.212C151.463 138.289 151.271 138.356 151.021 138.413C150.791 138.47 150.561 138.499 150.33 138.499C149.62 138.499 149.293 138.241 149.351 137.725L149.581 135.316C147.009 136.54 145.031 137.151 143.649 137.151C141.901 137.151 141.028 136.215 141.028 134.341C141.028 132.545 141.959 131.015 143.821 129.754C145.703 128.492 147.949 127.355 150.561 126.342C150.637 125.596 150.695 124.841 150.733 124.077C150.733 123.924 150.743 123.733 150.762 123.503C150.781 123.274 150.791 123.016 150.791 122.729C150.791 122.366 150.762 122.127 150.705 122.012L150.618 121.898H150.589C150.301 121.898 149.764 122.289 148.977 123.073C148.266 123.761 147.383 124.793 146.327 126.17C146.173 126.38 145.914 126.552 145.549 126.686C145.204 126.82 144.849 126.887 144.484 126.887C144.215 126.887 143.985 126.839 143.793 126.743C143.62 126.648 143.533 126.504 143.533 126.313C143.533 126.16 143.61 125.959 143.764 125.711C146.413 121.735 148.996 119.747 151.511 119.747Z" fill="#C1D446"/>
<path d="M171.763 119.89C171.667 121.897 171.619 123.694 171.619 125.281C171.619 129.218 171.888 132.726 172.425 135.803C172.502 136.243 172.329 136.625 171.907 136.95C171.485 137.256 171.024 137.409 170.525 137.409C170.237 137.409 169.997 137.342 169.805 137.208C169.613 137.075 169.497 136.874 169.459 136.606C168.96 132.898 168.672 129.438 168.595 126.227C167.673 128.406 166.569 131.464 165.283 135.402C165.264 135.479 165.206 135.584 165.11 135.717C164.937 135.947 164.678 136.128 164.333 136.262C163.987 136.396 163.641 136.463 163.296 136.463C163.027 136.463 162.816 136.425 162.662 136.348C162.413 136.214 162.288 136.033 162.288 135.803C162.288 135.746 162.307 135.641 162.345 135.488C162.365 135.278 162.374 134.972 162.374 134.571C162.374 133.902 162.317 132.936 162.201 131.675L162.086 130.126C162.009 128.253 161.942 126.848 161.885 125.911C160.963 127.594 160.233 128.836 159.695 129.639C159.234 132.066 158.466 134.418 157.391 136.692C157.257 136.96 156.969 137.189 156.527 137.38C156.086 137.572 155.654 137.667 155.231 137.667C154.962 137.667 154.742 137.619 154.569 137.524C154.415 137.428 154.338 137.294 154.338 137.122C154.338 137.008 154.367 136.883 154.425 136.75C155.308 134.838 155.98 132.879 156.441 130.872C156.364 130.795 156.326 130.69 156.326 130.556C156.326 130.365 156.402 130.164 156.556 129.954L156.671 129.754C156.978 128.224 157.132 126.6 157.132 124.879C157.132 124.153 157.103 123.436 157.046 122.729C157.026 122.404 157.247 122.107 157.708 121.84C158.169 121.572 158.639 121.438 159.119 121.438C159.388 121.438 159.609 121.496 159.782 121.61C159.954 121.725 160.051 121.888 160.07 122.098C160.109 122.442 160.147 122.996 160.185 123.761C160.627 122.958 161.097 122.203 161.597 121.496C161.635 121.171 161.865 120.894 162.288 120.664C162.71 120.416 163.152 120.292 163.613 120.292C163.901 120.292 164.141 120.358 164.333 120.492C164.544 120.607 164.659 120.798 164.678 121.066C164.87 123.532 165.005 125.73 165.081 127.66C166.368 124.526 167.645 121.935 168.912 119.89C169.046 119.68 169.305 119.489 169.689 119.317C170.073 119.145 170.448 119.059 170.813 119.059C171.101 119.059 171.331 119.125 171.504 119.259C171.696 119.393 171.782 119.603 171.763 119.89Z" fill="#C1D446"/>
<path d="M178.509 115.217C178.298 115.16 178.086 115.131 177.875 115.131C177.453 115.131 177.078 115.236 176.752 115.446C176.33 115.676 176.09 115.905 176.032 116.134C175.782 117.033 175.619 117.625 175.542 117.912V117.998C175.542 118.094 175.581 118.189 175.658 118.285C175.734 118.361 175.821 118.419 175.917 118.457C176.07 118.533 176.243 118.572 176.435 118.572C176.742 118.572 177.107 118.486 177.53 118.314C177.971 118.122 178.259 117.864 178.394 117.539C178.509 117.214 178.672 116.641 178.883 115.819V115.762C178.883 115.666 178.845 115.571 178.768 115.475C178.691 115.36 178.605 115.274 178.509 115.217ZM177.386 126.715C177.27 127.479 177.05 128.865 176.723 130.872C176.416 132.86 176.157 134.667 175.946 136.291C175.888 136.655 175.629 136.97 175.168 137.238C174.726 137.486 174.275 137.61 173.814 137.61C173.507 137.61 173.267 137.553 173.094 137.438C172.941 137.304 172.883 137.113 172.922 136.865C173.248 134.953 173.594 132.774 173.958 130.327C174.342 127.862 174.611 126.103 174.765 125.052L175.37 121.123C175.427 120.779 175.686 120.483 176.147 120.235C176.627 119.986 177.088 119.862 177.53 119.862C177.798 119.862 178.01 119.919 178.163 120.034C178.317 120.149 178.374 120.311 178.336 120.521L177.386 126.715Z" fill="#C1D446"/>
<path d="M181.202 114.557C181.24 114.194 181.49 113.888 181.95 113.64C182.43 113.372 182.901 113.238 183.362 113.238C183.65 113.238 183.87 113.296 184.024 113.41C184.178 113.525 184.245 113.707 184.226 113.955C183.669 118.944 183.093 123.933 182.498 128.922L181.634 136.406C181.595 136.769 181.336 137.084 180.856 137.352C180.376 137.62 179.896 137.753 179.416 137.753C178.763 137.753 178.466 137.505 178.523 137.008L179.877 125.768C180.491 120.492 180.933 116.755 181.202 114.557Z" fill="#C1D446"/>
<path d="M189.155 149.022C189.078 149.06 189.05 149.108 189.069 149.165C189.069 149.127 189.098 149.079 189.155 149.022ZM196.269 120.607C196.269 120.244 196.49 119.929 196.931 119.661C197.373 119.394 197.834 119.26 198.314 119.26C198.602 119.26 198.832 119.327 199.005 119.46C199.197 119.575 199.293 119.766 199.293 120.034C199.312 121.009 199.245 121.965 199.091 122.901C198.957 123.819 198.726 125.099 198.4 126.743C198.246 127.431 198.141 127.938 198.083 128.263C197.411 131.857 196.586 135.546 195.606 139.331C195.088 141.376 194.618 143.049 194.195 144.348C193.792 145.667 193.283 146.929 192.669 148.133C192.285 148.879 191.786 149.538 191.171 150.112C190.557 150.704 189.914 151 189.242 151C188.781 151 188.33 150.838 187.888 150.513C186.794 149.672 186.246 147.846 186.246 145.037C186.246 144.272 186.294 143.173 186.39 141.739C186.41 141.376 186.65 141.061 187.11 140.793C187.571 140.525 188.042 140.392 188.522 140.392C189.174 140.392 189.491 140.64 189.472 141.137C189.434 142.016 189.414 142.685 189.414 143.144C189.414 144.195 189.472 145.218 189.587 146.212C189.606 146.327 189.635 146.518 189.674 146.786C189.731 147.053 189.798 147.292 189.875 147.502C189.952 147.292 190.058 147.072 190.192 146.843C190.595 145.964 190.854 145.342 190.97 144.979C191.373 143.813 191.872 142.121 192.467 139.904C193.005 137.859 193.456 136.024 193.821 134.399C192.765 135.68 191.622 136.473 190.394 136.779C189.798 136.913 189.338 136.979 189.011 136.979C186.861 136.979 185.786 135.364 185.786 132.134C185.786 129.687 186.419 126.361 187.686 122.156C187.782 121.812 188.051 121.506 188.493 121.238C188.934 120.951 189.357 120.808 189.76 120.808C190.298 120.808 190.614 121.057 190.71 121.554C190.749 121.764 190.682 122.089 190.509 122.528C190.336 122.968 190.23 123.255 190.192 123.389C189.885 124.536 189.674 125.396 189.558 125.969L189.414 126.571C189.184 127.546 188.992 128.435 188.838 129.238C188.685 130.041 188.608 130.815 188.608 131.56C188.608 132.918 188.906 133.864 189.501 134.399C189.654 134.552 189.837 134.628 190.048 134.628C190.662 134.628 191.286 134.084 191.92 132.994C192.554 131.885 193.197 130.605 193.85 129.152C194.502 127.661 195.011 126.399 195.376 125.367C195.76 124.316 196.019 123.264 196.154 122.213C196.192 121.831 196.23 121.296 196.269 120.607Z" fill="#C1D446"/>
</svg>
